<svg width="24" height="24" viewBox="0 0 24 24" fill="none" xmlns="http://www.w3.org/2000/svg">
<path d="M23 6.16667V17.8333C23 18.1428 22.8771 18.4395 22.6583 18.6583C22.4395 18.8771 22.1428 19 21.8333 19H3.16667C2.85725 19 2.5605 18.8771 2.34171 18.6583C2.12292 18.4395 2 18.1428 2 17.8333V6.16667M23 6.16667C23 5.85725 22.8771 5.5605 22.6583 5.34171C22.4395 5.12292 22.1428 5 21.8333 5H3.16667C2.85725 5 2.5605 5.12292 2.34171 5.34171C2.12292 5.5605 2 5.85725 2 6.16667M23 6.16667L13.9933 13.6718C13.5741 14.0211 13.0457 14.2123 12.5 14.2123C11.9543 14.2123 11.4259 14.0211 11.0067 13.6718L2 6.16667" stroke="#319E90" stroke-width="1.5" stroke-linecap="round" stroke-linejoin="round"/>
</svg>
