<svg width="14" height="65" viewBox="0 0 14 65" fill="none" xmlns="http://www.w3.org/2000/svg">
<path d="M12.8182 0L11.7964 44.7707H1.82674L0.835968 0H12.8182ZM6.81159 64.0909C4.93324 64.0909 3.32323 63.4304 1.98155 62.1093C0.660518 60.7883 0 59.1783 0 57.2793C0 55.4216 0.660518 53.8322 1.98155 52.5112C3.32323 51.1901 4.93324 50.5296 6.81159 50.5296C8.64866 50.5296 10.238 51.1901 11.5797 52.5112C12.942 53.8322 13.6232 55.4216 13.6232 57.2793C13.6232 58.5384 13.3032 59.684 12.6634 60.7161C12.0441 61.7481 11.2185 62.5738 10.1864 63.193C9.17501 63.7916 8.05006 64.0909 6.81159 64.0909Z" fill="#319E90"/>
</svg>
