<svg width="32" height="32" viewBox="0 0 32 32" fill="none" xmlns="http://www.w3.org/2000/svg">
<path d="M24.2532 23.6667H10.0532C8.73316 23.6667 7.46649 23.1067 6.57316 22.1333C5.67983 21.16 5.2265 19.8533 5.33317 18.5333L6.43984 5.25333C6.47984 4.83999 6.33316 4.44 6.05316 4.13333C5.77316 3.82666 5.3865 3.66666 4.97317 3.66666H2.6665C2.11984 3.66666 1.6665 3.21332 1.6665 2.66666C1.6665 2.11999 2.11984 1.66666 2.6665 1.66666H4.98651C5.95984 1.66666 6.87983 2.07998 7.53316 2.78665C7.89316 3.18665 8.15983 3.65333 8.3065 4.17333H24.9598C26.3065 4.17333 27.5465 4.70666 28.4532 5.66666C29.3465 6.63999 29.7998 7.90666 29.6932 9.25333L28.9732 19.2533C28.8265 21.6933 26.6932 23.6667 24.2532 23.6667ZM8.37317 6.15998L7.33317 18.6933C7.2665 19.4666 7.51984 20.2 8.03984 20.7733C8.55984 21.3466 9.27983 21.6533 10.0532 21.6533H24.2532C25.6398 21.6533 26.8932 20.48 26.9998 19.0933L27.7198 9.09333C27.7732 8.30667 27.5198 7.56 26.9998 7.01334C26.4798 6.45334 25.7598 6.14664 24.9732 6.14664H8.37317V6.15998Z" fill="#319E90"/>
<path d="M21.6667 30.3333C20.2 30.3333 19 29.1333 19 27.6667C19 26.2 20.2 25 21.6667 25C23.1333 25 24.3333 26.2 24.3333 27.6667C24.3333 29.1333 23.1333 30.3333 21.6667 30.3333ZM21.6667 27C21.2933 27 21 27.2933 21 27.6667C21 28.04 21.2933 28.3333 21.6667 28.3333C22.04 28.3333 22.3333 28.04 22.3333 27.6667C22.3333 27.2933 22.04 27 21.6667 27Z" fill="#319E90"/>
<path d="M11.0002 30.3333C9.5335 30.3333 8.3335 29.1333 8.3335 27.6667C8.3335 26.2 9.5335 25 11.0002 25C12.4668 25 13.6668 26.2 13.6668 27.6667C13.6668 29.1333 12.4668 30.3333 11.0002 30.3333ZM11.0002 27C10.6268 27 10.3335 27.2933 10.3335 27.6667C10.3335 28.04 10.6268 28.3333 11.0002 28.3333C11.3735 28.3333 11.6668 28.04 11.6668 27.6667C11.6668 27.2933 11.3735 27 11.0002 27Z" fill="#319E90"/>
<path d="M28 11.6667H12C11.4533 11.6667 11 11.2133 11 10.6667C11 10.12 11.4533 9.66666 12 9.66666H28C28.5467 9.66666 29 10.12 29 10.6667C29 11.2133 28.5467 11.6667 28 11.6667Z" fill="#319E90"/>
</svg>
