<svg width="142" height="27" viewBox="0 0 142 27" fill="none" xmlns="http://www.w3.org/2000/svg">
<g clip-path="url(#clip0_626_1370)">
<path d="M11.8171 10.5798L12.3349 7.1877C13.5856 6.94196 14.6914 6.4768 15.6525 5.8054C16.6135 5.13399 17.0918 4.48014 17.0918 3.85701C17.0918 3.43134 16.811 3.21632 16.2361 3.21632H16.1747C15.218 3.25143 14.2131 3.5235 13.1687 4.02815C11.8215 4.65567 10.7464 5.44117 9.95211 6.39781C9.15345 7.35007 8.76289 8.32865 8.76289 9.33357C8.76289 10.062 9.05691 10.7203 9.64932 11.3083C10.2374 11.8832 11.2291 12.5019 12.6377 13.1514C14.4369 13.9544 15.7139 14.7882 16.4599 15.6527C17.2059 16.5084 17.5833 17.5616 17.5833 18.8166C17.5833 19.9225 17.3332 20.9274 16.8329 21.8445C16.3195 22.7485 15.591 23.5296 14.6388 24.1879C13.6865 24.8505 12.5368 25.3507 11.2028 25.7062C9.86435 26.0529 8.39428 26.2328 6.78378 26.2328C5.33127 26.2328 4.09377 26.066 3.07131 25.7325C2.04884 25.4034 1.2765 24.9163 0.767465 24.2712C0.258426 23.6262 0.00390625 22.845 0.00390625 21.9147C0.00390625 20.9274 0.29792 20.0497 0.894725 19.2905C1.48275 18.527 2.30775 17.939 3.38287 17.5133C4.458 17.0964 5.70427 16.8858 7.13046 16.8858C7.82819 16.8858 8.6093 16.9735 9.48257 17.1491L8.83749 20.3437H8.77167L6.82767 20.2691H6.48099C5.5068 20.2691 4.72568 20.392 4.13766 20.6334C3.55402 20.8835 3.26 21.2082 3.26 21.6076C3.26 22.3623 4.30002 22.7441 6.39323 22.7441C8.02127 22.7441 9.43869 22.6081 10.6235 22.336C11.8171 22.0683 12.7167 21.669 13.3399 21.1424C13.9586 20.6202 14.2702 19.9927 14.2702 19.2774C14.2702 18.6981 14.0156 18.1715 13.5154 17.6888C13.0063 17.2017 12.1726 16.6927 11.0009 16.1529C9.75464 15.5517 8.74973 14.9286 7.98617 14.2967C7.21822 13.6648 6.65213 12.9758 6.28352 12.2342C5.91491 11.497 5.7306 10.6808 5.7306 9.78556C5.7306 8.57001 6.02022 7.38518 6.60386 6.23106C7.19189 5.07695 7.99056 4.04131 9.01741 3.12417C10.0223 2.19824 11.1721 1.4654 12.4578 0.938808C13.7392 0.407827 15.0469 0.144531 16.3765 0.144531C17.5219 0.144531 18.4127 0.438545 19.0665 1.0178C19.7072 1.60144 20.0276 2.42643 20.0276 3.49278C20.0276 4.7961 19.5624 5.98532 18.6409 7.06044C17.7896 8.01709 16.7847 8.7982 15.613 9.41256C15.0118 9.74168 14.4589 9.97864 13.9542 10.1278C13.4583 10.277 12.7431 10.4262 11.8171 10.5798Z" fill="white"/>
<path d="M34.3427 22.7529L34.0443 23.0162L33.6888 23.3015C32.0388 24.6267 30.7794 25.4737 29.9018 25.8379C29.4147 26.0134 28.8749 26.1407 28.2781 26.2328C27.3258 26.1977 26.8519 25.6887 26.8519 24.7101C26.8519 23.9422 27.124 22.8539 27.6813 21.4365C27.7383 21.2522 27.791 21.103 27.8349 20.9976C27.8832 20.8879 27.927 20.7431 27.949 20.6466C27.949 20.6466 27.9753 20.5544 26.8168 21.5725L22.9025 24.991C21.9722 25.816 21.0945 26.2328 20.2607 26.2328C19.8395 26.2328 19.4972 26.1144 19.2295 25.873C18.9662 25.6229 18.8302 25.3201 18.8302 24.9559C18.8302 24.4073 19.0276 23.6306 19.427 22.6476C19.4708 22.5204 19.5235 22.3931 19.5762 22.2527C19.6288 22.1166 19.6903 21.9806 19.7429 21.8358L18.5449 22.7573V19.6768C19.4577 18.8649 20.0589 18.2857 20.3617 17.9478L21.0726 17.1403L22.2179 15.5957L23.1131 13.3928L26.0971 13.2831L22.8586 21.7217C24.7192 20.0234 26.1454 18.6631 27.1372 17.6318C27.949 16.8288 28.4624 16.311 28.6862 16.0872C29.7306 14.9418 30.5468 14.0159 31.1436 13.2962L33.8512 13.1821C32.6532 16.447 31.5561 19.2116 30.5688 21.4716C30.4766 21.6822 30.4327 21.8577 30.4327 21.9806C30.4327 22.1561 30.503 22.2439 30.6478 22.2439C30.8365 22.2439 31.0427 22.1561 31.2577 21.9806L33.386 20.4052L34.2023 19.7777L34.3339 19.668V22.7486" fill="white"/>
<path d="M45.9447 22.7529C44.6283 23.9421 43.5926 24.7759 42.8378 25.2542C41.89 25.9036 40.9114 26.2328 39.9196 26.2328C39.4238 26.2328 39.0157 26.0572 38.6953 25.7062C38.3881 25.377 38.2302 24.947 38.2302 24.4072C38.2302 23.7534 38.4496 22.9196 38.8796 21.9103L41.201 16.5873L41.3985 16.0256C41.28 15.8896 41.1396 15.7931 40.9816 15.7448H40.1347C39.3272 17.1315 38.5681 18.2637 37.8484 19.1282C36.9268 20.2823 35.7332 21.4978 34.25 22.7616V19.6767C35.0531 18.799 35.7376 17.9609 36.2905 17.1666C36.9181 16.3197 37.5105 15.3893 38.0678 14.38C37.765 13.8535 37.6158 13.3707 37.6158 12.9319C37.6158 12.3176 37.7869 11.7954 38.1161 11.3697C38.4496 10.9396 38.8533 10.729 39.3448 10.729C39.8363 10.729 40.2312 10.9001 40.5384 11.2337C40.8543 11.5759 41.0167 12.0104 41.0167 12.5326C41.0167 12.7959 41.0123 13.0065 40.986 13.1557H42.5482C43.9305 13.1557 44.6195 13.7481 44.6195 14.9242C44.6195 15.4639 44.4483 16.1354 44.1192 16.9384L42.048 21.7567C41.9646 21.9235 41.9207 22.0727 41.9207 22.2131C41.9207 22.393 41.9821 22.494 42.1006 22.494C42.5482 22.494 43.6365 21.7216 45.3699 20.1769L45.9535 19.6723V22.7529" fill="white"/>
<path d="M56.652 22.7573C55.5681 23.6745 54.6422 24.3547 53.8699 24.7891C52.7904 25.4166 51.7854 25.7282 50.8727 25.7282C50.6533 25.7282 50.469 25.7194 50.3154 25.6887L50.1618 25.6536C49.644 26.0354 49.1261 26.2284 48.6083 26.2284C47.9589 26.2284 47.3972 26.0222 46.932 25.6141C46.4712 25.2016 46.2387 24.6969 46.2387 24.1089C46.2387 23.8719 46.2869 23.6745 46.3703 23.5253C46.4581 23.3761 46.5678 23.3015 46.7038 23.3015H46.7521C47.0856 23.3805 47.6297 23.42 48.3758 23.42H48.4153C48.7751 23.42 49.1481 23.3936 49.5167 23.341C49.938 22.652 50.2364 21.9938 50.4163 21.3619C50.6796 20.4096 50.8244 19.1238 50.8464 17.509L49.8678 18.6367C49.2271 19.3608 48.3758 20.2736 47.3182 21.3619C46.7872 21.8884 46.2957 22.3536 45.8262 22.7573V19.668C47.1383 18.3778 48.2178 17.2106 49.0559 16.1661C49.859 15.1261 50.5962 14.0949 51.2588 13.0812C51.3159 12.0938 51.3993 11.361 51.509 10.8958C51.6231 10.4351 51.803 10.0445 52.0707 9.72855C52.4261 9.28973 52.8211 9.07031 53.2599 9.07031C53.6548 9.07031 53.9927 9.22829 54.2692 9.53547C54.5457 9.84704 54.6861 10.2288 54.6861 10.6896C54.6861 11.4224 54.4052 12.2167 53.8392 13.0812C54.0147 14.1124 54.1024 15.2534 54.1024 16.5084C54.1024 17.7635 53.9927 18.9702 53.7733 19.9708C53.6241 20.6334 53.3389 21.4628 52.9264 22.4589C53.3477 22.2439 53.7163 22.0376 54.0366 21.8358C54.1332 21.7744 54.2648 21.6866 54.4184 21.5725C54.5676 21.4452 54.6949 21.3531 54.787 21.2873C54.9362 21.1775 55.5594 20.6334 56.652 19.668V22.7573Z" fill="white"/>
<path d="M64.9592 22.7529C63.634 23.9553 62.5764 24.7759 61.7865 25.2147C60.7026 25.8905 59.746 26.2328 58.9122 26.2328C58.4163 26.2328 58.0214 26.0836 57.7318 25.7896C57.4377 25.4999 57.2929 25.1138 57.2929 24.6355C57.2929 24.0123 57.508 22.9942 57.938 21.59C57.9248 21.6032 57.8985 21.6339 57.8546 21.6822C57.8107 21.7304 57.7756 21.7699 57.7405 21.7962C57.5957 21.8972 57.429 22.0244 57.2403 22.1868C57.0516 22.3492 56.9243 22.4633 56.8629 22.5291L56.582 22.7529V19.6635C57.486 18.7815 58.0828 18.1803 58.3768 17.8512C58.4997 17.7371 58.6445 17.5835 58.82 17.3948C58.9868 17.2105 59.1536 17.0394 59.3028 16.8858C59.7811 16.2977 60.2506 15.6658 60.7246 14.9813L61.3433 13.2479L63.0152 13.1909C63.0152 13.1909 64.5599 13.1338 64.0026 14.5819L61.317 21.59L61.2204 21.9454L61.1546 22.1341V22.2482C61.1546 22.3536 61.2029 22.3974 61.2994 22.3974C61.396 22.3974 61.4662 22.3755 61.532 22.3228L61.9796 22.099L64.4063 20.177L64.9548 19.6679V22.7529M62.572 9.33356C62.572 8.67094 62.7651 8.10924 63.1557 7.66163C63.5374 7.20964 64.0201 6.98584 64.5906 6.98584C65.0558 6.98584 65.4288 7.15259 65.7184 7.49488C66.008 7.81961 66.1528 8.25844 66.1528 8.81136C66.1528 9.43888 65.9466 9.99619 65.5429 10.4789C65.1435 10.9616 64.6784 11.203 64.1474 11.203C63.7086 11.203 63.3356 11.023 63.0284 10.6632C62.7256 10.3078 62.572 9.86893 62.572 9.33795" fill="white"/>
<path d="M73.2093 21.2129C73.2093 21.2129 73.2093 22.7576 73.1215 22.8409C73.025 22.9331 72.9065 23.0296 72.8626 23.0647C72.8188 23.0911 72.7398 23.1657 72.6213 23.2754C72.5072 23.3895 72.3624 23.5211 72.2 23.6703C71.1907 24.6621 70.3745 25.3379 69.7689 25.6933C69.1633 26.0488 68.5139 26.2287 67.8161 26.2287C66.5084 26.2287 65.8502 25.7109 65.8502 24.6708C65.8502 24.0214 65.9994 23.1262 66.311 21.9852C66.3548 21.836 66.3899 21.7351 66.4075 21.6868L66.4514 21.5245C66.4514 21.5245 66.4953 21.3621 66.1574 21.6649C65.8195 21.9677 65.2841 22.4328 64.8848 22.7576V21.2173C64.8848 21.2173 64.8848 19.6726 65.2753 19.3172C65.6659 18.9617 66.3373 18.2947 66.8902 17.6847C67.3773 17.1142 67.7854 16.6052 67.9478 16.3726C67.9478 16.3726 68.1145 16.1401 69.4135 11.6903L71.8928 3.19905C72.2351 2.00544 72.5686 1.17606 72.889 0.702123C73.2049 0.232578 73.5999 0 74.0606 0C74.7277 0 75.0612 0.495874 75.0612 1.48762C75.0612 2.40477 74.9383 3.49306 74.7013 4.76127C74.4687 6.02509 74.1923 7.03878 73.8983 7.80673L71.5769 13.5817L69.1414 21.915C69.0536 22.2266 69.0097 22.4592 69.0097 22.6084C69.0097 22.7225 69.0492 22.8278 69.1282 22.9287C69.194 23.0165 69.2774 23.0604 69.3959 23.0604C69.8084 23.0604 70.9055 22.1257 72.6696 20.2562L73.2137 19.6682V21.2129" fill="white"/>
<path d="M86.5021 13.3489L83.031 15.0822C83.1188 13.9413 83.2197 13.0812 83.3382 12.4888C83.4567 11.9051 83.6629 11.2513 83.9569 10.5228C84.6327 8.74995 85.5279 7.36326 86.6469 6.37151C87.7703 5.37537 88.9947 4.8795 90.3287 4.8795C91.0615 4.8795 91.7066 5.05942 92.2683 5.42364C92.8344 5.79226 93.2688 6.30569 93.5848 6.96393C93.9008 7.63094 94.0587 8.3945 94.0587 9.25899C94.0587 10.1893 93.8744 11.4092 93.519 12.932C93.1591 14.4415 92.7423 15.7536 92.2639 16.8595C91.6496 18.2944 90.9255 19.6021 90.0917 20.7782C89.2667 21.9499 88.3759 22.9416 87.4237 23.7359C86.4714 24.5389 85.4665 25.1577 84.4089 25.5921C83.347 26.0222 82.2718 26.2416 81.1923 26.2416C80.0163 26.2416 78.9894 25.9695 78.103 25.4342C77.2166 24.8944 76.5364 24.1264 76.0581 23.1303C75.5753 22.1298 75.334 20.9625 75.334 19.6197C75.334 18.3998 75.4876 17.1184 75.7904 15.7624C76.0932 14.4064 76.5144 13.0812 77.0454 11.7822C77.5764 10.4833 78.2259 9.2195 78.9982 7.99956C79.7661 6.77962 80.5867 5.68694 81.4644 4.73469C82.7502 3.36555 84.1544 2.26848 85.6815 1.42593C87.2086 0.583383 88.569 0.162109 89.767 0.162109C90.3111 0.162109 90.7368 0.293757 91.0528 0.561442C91.3687 0.824738 91.5311 1.19335 91.5311 1.67167C91.5311 2.5976 90.9211 3.21634 89.71 3.51475L89.0649 3.66395C87.7528 3.99307 86.4626 4.66886 85.1856 5.69572C83.9043 6.72257 82.7633 7.97762 81.7584 9.45646C80.7623 10.9353 79.9768 12.5326 79.3975 14.2353C78.8139 15.9423 78.5243 17.6011 78.5243 19.2248C78.5243 20.3657 78.7919 21.296 79.3317 22.0157C79.8627 22.731 80.556 23.0864 81.4117 23.0864C82.2104 23.0864 83.0222 22.8714 83.8604 22.4457C84.6986 22.0201 85.4489 21.4364 86.1116 20.6948C86.998 19.6943 87.8054 18.5226 88.5383 17.193C89.2667 15.8633 89.846 14.5161 90.2629 13.1602C90.6842 11.8042 90.8992 10.6018 90.8992 9.54862C90.8992 8.55687 90.5701 8.06099 89.9162 8.06099C88.2618 8.06099 87.1209 9.83385 86.5153 13.3708" fill="white"/>
<path d="M104.897 22.7529C103.58 23.9421 102.545 24.7759 101.799 25.2542C100.847 25.9036 99.8679 26.2328 98.8762 26.2328C98.3803 26.2328 97.9678 26.0572 97.6475 25.7062C97.3403 25.377 97.1867 24.947 97.1867 24.4072C97.1867 23.7534 97.4017 22.9196 97.8362 21.9103L100.162 16.5873L100.359 16.0256C100.237 15.8896 100.101 15.7931 99.9425 15.7448H99.1C98.2882 17.1315 97.529 18.2637 96.8137 19.1282C95.8878 20.2823 94.6942 21.4978 93.2109 22.7616V19.6767C94.0184 18.799 94.6986 17.9609 95.2515 17.1666C95.8834 16.3197 96.4714 15.3893 97.0287 14.38C96.7259 13.8535 96.5811 13.3707 96.5811 12.9319C96.5811 12.3176 96.7479 11.7954 97.077 11.3697C97.4061 10.9396 97.8186 10.729 98.3057 10.729C98.7928 10.729 99.1878 10.9001 99.4993 11.2337C99.8197 11.5759 99.982 12.0104 99.982 12.5326C99.982 12.7959 99.9689 13.0065 99.9469 13.1557H101.509C102.891 13.1557 103.585 13.7481 103.585 14.9242C103.585 15.4639 103.414 16.1354 103.08 16.9384L101.009 21.7567C100.921 21.9235 100.877 22.0727 100.877 22.2131C100.877 22.393 100.939 22.494 101.062 22.494C101.505 22.494 102.597 21.7216 104.331 20.1769L104.914 19.6723V22.7529" fill="white"/>
<path d="M114.064 22.7532C113.871 22.8892 113.691 23.0209 113.525 23.1481C113.349 23.271 113.169 23.4114 112.985 23.5606C111.695 24.5656 110.646 25.2589 109.838 25.6495C109.04 26.0356 108.25 26.2331 107.482 26.2331C106.429 26.2331 105.911 25.7416 105.911 24.7499C105.911 24.0653 106.17 23.0867 106.688 21.8361C106.841 21.4236 106.942 21.1383 106.986 20.9891C106.337 21.4587 105.749 21.915 105.231 22.367L104.783 22.7576V19.6682C105.477 19.0144 106.144 18.3518 106.789 17.6716C107.447 16.9431 108.237 15.9997 109.141 14.8455L110.4 11.2647H107.912L108.676 8.69757H111.278C111.84 6.15238 112.414 4.29614 112.985 3.14203C113.573 1.97036 114.231 1.38672 114.96 1.38672C115.223 1.38672 115.451 1.5052 115.631 1.74656C115.811 1.98352 115.903 2.2907 115.903 2.66809C115.903 3.84854 115.429 5.52924 114.477 7.70144C114.433 7.80237 114.358 7.96473 114.262 8.18854C114.174 8.42989 114.108 8.59664 114.064 8.69757H116.237L115.741 11.2647H113.253C110.576 18.1499 109.246 21.9282 109.246 22.6084C109.246 22.8585 109.347 22.9814 109.558 22.9814C110.089 22.9814 111.44 22.0247 113.604 20.1027C113.836 19.8789 113.955 19.756 113.968 19.7472L114.069 19.6726V22.7532" fill="white"/>
<path d="M129.892 22.7532C128.668 23.8722 127.685 24.6489 126.943 25.1009C125.618 25.9522 124.543 26.3823 123.714 26.3823C123.284 26.3823 122.928 26.2331 122.647 25.9391C122.362 25.6451 122.222 25.2764 122.222 24.842C122.222 24.4295 122.362 23.8195 122.634 23.0165L122.735 22.7532L124.021 19.4181C124.021 19.4181 124.574 17.9787 123.463 19.0539L117.978 24.3374L117.43 24.8464C116.811 25.4213 116.368 25.803 116.1 25.9742C115.837 26.1497 115.551 26.2375 115.257 26.2375C114.963 26.2375 114.731 26.1453 114.542 25.9742C114.367 25.803 114.279 25.5705 114.279 25.294C114.279 24.7586 114.538 23.8371 115.056 22.5338C115.178 22.1871 115.279 21.9062 115.354 21.6912L115.091 21.915L114.13 22.6523L113.998 22.762H113.985C113.985 22.762 113.963 22.762 113.963 21.2173C113.963 21.2173 113.963 19.6726 114.279 19.4137C114.595 19.146 115.047 18.7379 115.323 18.4527C115.916 17.8998 116.631 17.1538 117.043 16.6798C117.043 16.6798 117.46 16.2103 119.031 11.8483L122.252 2.89188C122.682 1.72021 123.02 0.961043 123.266 0.609982C123.63 0.206261 124.016 0.00878906 124.425 0.00878906C124.754 0.00878906 125.039 0.149214 125.267 0.434451C125.5 0.7153 125.614 1.07075 125.614 1.49641C125.614 2.24242 125.46 3.21223 125.144 4.42339C124.828 5.62577 124.468 6.64824 124.06 7.49079L121.274 13.2394L119.435 18.4132C119.435 18.4132 118.917 19.8701 120.076 18.852L124.552 14.907C124.582 14.8806 124.714 14.7709 124.934 14.5691C125.938 13.5905 126.763 13.1034 127.404 13.1034C127.839 13.1034 128.176 13.1999 128.435 13.393C128.69 13.5861 128.817 13.8582 128.817 14.2092C128.817 14.7753 128.655 15.4467 128.339 16.2234L126.096 21.5289C125.917 21.9457 125.833 22.2222 125.833 22.3758C125.833 22.5601 125.895 22.6566 126.013 22.6566C126.316 22.6566 127.492 21.7658 129.563 19.9842L129.888 19.6814V22.7576" fill="white"/>
<path d="M142 22.7573C141.342 23.2488 140.653 23.4945 139.951 23.4945C139.622 23.4945 139.157 23.4199 138.564 23.2707C138.13 23.8851 137.779 24.3283 137.498 24.6091C137.226 24.89 136.853 25.1665 136.388 25.4385C135.497 25.9651 134.593 26.2284 133.663 26.2284C132.399 26.2284 131.42 25.7984 130.723 24.9295C130.021 24.0694 129.674 22.8802 129.674 21.3618C129.674 19.8435 129.99 18.3295 130.622 16.9604C131.254 15.5781 132.096 14.4942 133.158 13.6911C134.224 12.8749 135.361 12.4712 136.577 12.4712C137.617 12.4712 138.507 12.8179 139.253 13.52C139.982 14.2133 140.346 15.0427 140.346 16.0213C140.346 16.583 140.087 17.2676 139.569 18.0531C139.701 18.4787 139.767 18.8342 139.767 19.1238C139.767 19.5231 139.701 20.0146 139.569 20.5939L140.052 20.708H140.149C140.583 20.708 141.193 20.3613 142 19.668V22.7573ZM137.358 17.3553L137.441 16.8638V16.7717C137.441 16.4952 137.323 16.2495 137.081 16.0389C136.84 15.8107 136.559 15.6966 136.252 15.6966C135.677 15.6966 135.12 15.9511 134.589 16.4514C134.058 16.956 133.623 17.6099 133.299 18.4217C132.969 19.2291 132.807 20.0717 132.807 20.9537C132.807 21.6427 132.926 22.1868 133.171 22.5862C133.417 22.9767 133.751 23.1742 134.167 23.1742C134.65 23.1742 135.181 22.9065 135.769 22.3711C135.844 22.3053 136.037 22.1385 136.195 22.0113C136.195 22.0113 136.348 21.8796 136.182 21.5725C136.01 21.2609 135.839 20.7124 135.839 20.2209C135.839 19.1282 136.344 18.1759 137.358 17.3597" fill="white"/>
</g>
<defs>
<clipPath id="clip0_626_1370">
<rect width="142" height="26.3779" fill="white"/>
</clipPath>
</defs>
</svg>
