<svg width="20" height="20" viewBox="0 0 20 20" fill="none" xmlns="http://www.w3.org/2000/svg">
<path d="M6.61558 2.04518C6.38124 2.27959 6.2496 2.59748 6.2496 2.92893C6.2496 3.26039 6.38124 3.57827 6.61558 3.81268L12.8031 10.0002L6.61558 16.1877C6.38788 16.4234 6.26189 16.7392 6.26474 17.0669C6.26759 17.3947 6.39905 17.7082 6.63081 17.94C6.86257 18.1717 7.17608 18.3032 7.50383 18.306C7.83157 18.3089 8.14733 18.1829 8.38308 17.9552L15.4543 10.8839C15.6887 10.6495 15.8203 10.3316 15.8203 10.0002C15.8203 9.66873 15.6887 9.35084 15.4543 9.11643L8.38308 2.04518C8.14867 1.81084 7.83079 1.6792 7.49933 1.6792C7.16788 1.6792 6.84999 1.81084 6.61558 2.04518Z" fill="#319E90"/>
</svg>
