<svg width="20" height="20" viewBox="0 0 20 20" fill="none" xmlns="http://www.w3.org/2000/svg">
<path d="M13.3844 17.9548C13.6188 17.7204 13.7504 17.4025 13.7504 17.0711C13.7504 16.7396 13.6188 16.4217 13.3844 16.1873L7.19692 9.99982L13.3844 3.81232C13.6121 3.57657 13.7381 3.26081 13.7353 2.93307C13.7324 2.60532 13.601 2.29181 13.3692 2.06005C13.1374 1.82829 12.8239 1.69683 12.4962 1.69398C12.1684 1.69113 11.8527 1.81712 11.6169 2.04482L4.54567 9.11607C4.31133 9.35048 4.17969 9.66836 4.17969 9.99982C4.17969 10.3313 4.31133 10.6492 4.54567 10.8836L11.6169 17.9548C11.8513 18.1892 12.1692 18.3208 12.5007 18.3208C12.8321 18.3208 13.15 18.1892 13.3844 17.9548Z" fill="#319E90"/>
</svg>
