<svg width="27" height="36" viewBox="0 0 27 36" fill="none" xmlns="http://www.w3.org/2000/svg">
<path d="M11.781 35.0347C8.127 30.529 0 19.6087 0 13.4749C0 6.03281 6.0172 0 13.44 0C20.86 0 26.88 6.03281 26.88 13.4749C26.88 19.6087 18.69 30.529 15.099 35.0347C14.238 36.1084 12.642 36.1084 11.781 35.0347V35.0347ZM13.44 17.9665C15.911 17.9665 17.92 15.9523 17.92 13.4749C17.92 10.9975 15.911 8.98325 13.44 8.98325C10.969 8.98325 8.96 10.9975 8.96 13.4749C8.96 15.9523 10.969 17.9665 13.44 17.9665Z" fill="#319E90"/>
</svg>
