<svg width="16" height="16" viewBox="0 0 16 16" fill="none" xmlns="http://www.w3.org/2000/svg">
<path d="M7.99998 11.5167L5.23331 13.1834C5.11109 13.2611 4.98331 13.2945 4.84998 13.2834C4.71664 13.2722 4.59998 13.2278 4.49998 13.15C4.39998 13.0722 4.3222 12.9751 4.26664 12.8587C4.21109 12.7423 4.19998 12.6116 4.23331 12.4667L4.96664 9.3167L2.51664 7.20003C2.40553 7.10003 2.3362 6.98603 2.30864 6.85803C2.28109 6.73003 2.28931 6.60514 2.33331 6.48336C2.37731 6.36158 2.44398 6.26158 2.53331 6.18336C2.62264 6.10514 2.74486 6.05514 2.89998 6.03336L6.13331 5.75003L7.38331 2.78336C7.43886 2.65003 7.52509 2.55003 7.64198 2.48336C7.75886 2.4167 7.8782 2.38336 7.99998 2.38336C8.12175 2.38336 8.24109 2.4167 8.35798 2.48336C8.47486 2.55003 8.56109 2.65003 8.61664 2.78336L9.86664 5.75003L13.1 6.03336C13.2555 6.05558 13.3778 6.10558 13.4666 6.18336C13.5555 6.26114 13.6222 6.36114 13.6666 6.48336C13.7111 6.60558 13.7195 6.7307 13.692 6.8587C13.6644 6.9867 13.5949 7.10047 13.4833 7.20003L11.0333 9.3167L11.7666 12.4667C11.8 12.6111 11.7889 12.7418 11.7333 12.8587C11.6778 12.9756 11.6 13.0727 11.5 13.15C11.4 13.2274 11.2833 13.2718 11.15 13.2834C11.0166 13.2949 10.8889 13.2616 10.7666 13.1834L7.99998 11.5167Z" fill="#F1C649"/>
</svg>