<svg width="32" height="32" viewBox="0 0 32 32" fill="none" xmlns="http://www.w3.org/2000/svg">
<path d="M24.2527 23.6667H10.0527C8.73267 23.6667 7.46601 23.1067 6.57267 22.1333C5.67934 21.16 5.22602 19.8533 5.33268 18.5333L6.43935 5.25333C6.47935 4.84 6.33267 4.44001 6.05267 4.13334C5.77267 3.82667 5.38601 3.66666 4.97268 3.66666H2.66602C2.11935 3.66666 1.66602 3.21333 1.66602 2.66666C1.66602 2.12 2.11935 1.66666 2.66602 1.66666H4.98602C5.95936 1.66666 6.87934 2.07999 7.53267 2.78666C7.89267 3.18666 8.15934 3.65334 8.30601 4.17334H24.9594C26.306 4.17334 27.546 4.70666 28.4527 5.66666C29.346 6.64 29.7994 7.90667 29.6927 9.25333L28.9727 19.2533C28.826 21.6933 26.6927 23.6667 24.2527 23.6667ZM8.37268 6.15999L7.33268 18.6933C7.26602 19.4667 7.51935 20.2 8.03935 20.7733C8.55935 21.3466 9.27934 21.6533 10.0527 21.6533H24.2527C25.6394 21.6533 26.8927 20.48 26.9993 19.0933L27.7193 9.09334C27.7727 8.30667 27.5194 7.56001 26.9993 7.01334C26.4793 6.45334 25.7593 6.14664 24.9727 6.14664H8.37268V6.15999Z" fill="#231F20"/>
<path d="M21.6667 30.3333C20.2 30.3333 19 29.1333 19 27.6667C19 26.2 20.2 25 21.6667 25C23.1333 25 24.3333 26.2 24.3333 27.6667C24.3333 29.1333 23.1333 30.3333 21.6667 30.3333ZM21.6667 27C21.2933 27 21 27.2933 21 27.6667C21 28.04 21.2933 28.3333 21.6667 28.3333C22.04 28.3333 22.3333 28.04 22.3333 27.6667C22.3333 27.2933 22.04 27 21.6667 27Z" fill="#231F20"/>
<path d="M11.0007 30.3333C9.53398 30.3333 8.33398 29.1333 8.33398 27.6667C8.33398 26.2 9.53398 25 11.0007 25C12.4673 25 13.6673 26.2 13.6673 27.6667C13.6673 29.1333 12.4673 30.3333 11.0007 30.3333ZM11.0007 27C10.6273 27 10.334 27.2933 10.334 27.6667C10.334 28.04 10.6273 28.3333 11.0007 28.3333C11.374 28.3333 11.6673 28.04 11.6673 27.6667C11.6673 27.2933 11.374 27 11.0007 27Z" fill="#231F20"/>
<path d="M28 11.6667H12C11.4533 11.6667 11 11.2133 11 10.6667C11 10.12 11.4533 9.66666 12 9.66666H28C28.5467 9.66666 29 10.12 29 10.6667C29 11.2133 28.5467 11.6667 28 11.6667Z" fill="#231F20"/>
</svg>
