<svg width="32" height="32" viewBox="0 0 32 32" fill="none" xmlns="http://www.w3.org/2000/svg">
<path d="M15.9998 18.8933C13.1598 18.8933 10.8398 16.5867 10.8398 13.7333C10.8398 10.88 13.1598 8.58667 15.9998 8.58667C18.8398 8.58667 21.1598 10.8933 21.1598 13.7467C21.1598 16.6 18.8398 18.8933 15.9998 18.8933ZM15.9998 10.5867C14.2665 10.5867 12.8398 12 12.8398 13.7467C12.8398 15.4933 14.2532 16.9067 15.9998 16.9067C17.7465 16.9067 19.1598 15.4933 19.1598 13.7467C19.1598 12 17.7332 10.5867 15.9998 10.5867Z" fill="#231F20"/>
<path d="M16.0002 30.3467C14.0269 30.3467 12.0402 29.6 10.4936 28.12C6.56023 24.3333 2.21357 18.2933 3.85357 11.1067C5.33357 4.58666 11.0269 1.66666 16.0002 1.66666C16.0002 1.66666 16.0002 1.66666 16.0136 1.66666C20.9869 1.66666 26.6802 4.58666 28.1602 11.12C29.7869 18.3067 25.4402 24.3333 21.5069 28.12C19.9602 29.6 17.9736 30.3467 16.0002 30.3467ZM16.0002 3.66666C12.1202 3.66666 7.13357 5.73333 5.81357 11.5467C4.37357 17.8267 8.32023 23.24 11.8936 26.6667C14.2002 28.8933 17.8136 28.8933 20.1202 26.6667C23.6802 23.24 27.6269 17.8267 26.2136 11.5467C24.8802 5.73333 19.8802 3.66666 16.0002 3.66666Z" fill="#231F20"/>
</svg>
