<svg width="32" height="32" viewBox="0 0 32 32" fill="none" xmlns="http://www.w3.org/2000/svg">
<path d="M13.9813 20.5632C13.787 20.7644 13.6795 21.0338 13.682 21.3135C13.6844 21.5932 13.7966 21.8607 13.9943 22.0585C14.1921 22.2562 14.4596 22.3684 14.7393 22.3708C15.019 22.3733 15.2884 22.2658 15.4896 22.0715L21.1792 16.3605C21.2289 16.311 21.2683 16.2521 21.2952 16.1873C21.3221 16.1225 21.3359 16.0531 21.3359 15.9829C21.3359 15.9128 21.3221 15.8433 21.2952 15.7785C21.2683 15.7137 21.2289 15.6549 21.1792 15.6053L15.4896 9.89653C15.2884 9.70223 15.019 9.59471 14.7393 9.59715C14.4596 9.59958 14.1921 9.71176 13.9943 9.90952C13.7966 10.1073 13.6844 10.3748 13.682 10.6545C13.6795 10.9342 13.787 11.2036 13.9813 11.4048L17.4928 14.9333H3.19948C2.91658 14.9333 2.64527 15.0457 2.44523 15.2458C2.24519 15.4458 2.13281 15.7171 2.13281 16C2.13281 16.2829 2.24519 16.5542 2.44523 16.7542C2.64527 16.9543 2.91658 17.0667 3.19948 17.0667H17.4928L13.9813 20.5632ZM25.5995 2.13333H11.7328C11.4499 2.13333 11.1786 2.24571 10.9786 2.44575C10.7785 2.64579 10.6661 2.9171 10.6661 3.2C10.6661 3.4829 10.7785 3.75421 10.9786 3.95425C11.1786 4.15428 11.4499 4.26666 11.7328 4.26666H24.5328C24.8157 4.26666 25.087 4.37905 25.2871 4.57908C25.4871 4.77912 25.5995 5.05043 25.5995 5.33333V26.6667C25.5995 26.9496 25.4871 27.2209 25.2871 27.4209C25.087 27.621 24.8157 27.7333 24.5328 27.7333H11.1995C10.9166 27.7333 10.6453 27.8457 10.4452 28.0457C10.2452 28.2458 10.1328 28.5171 10.1328 28.8C10.1328 29.0829 10.2452 29.3542 10.4452 29.5542C10.6453 29.7543 10.9166 29.8667 11.1995 29.8667H25.5995C26.1653 29.8667 26.7079 29.6419 27.108 29.2418C27.5081 28.8417 27.7328 28.2991 27.7328 27.7333V4.26666C27.7328 3.70087 27.5081 3.15825 27.108 2.75817C26.7079 2.35809 26.1653 2.13333 25.5995 2.13333Z" fill="#319E90"/>
</svg>
