<svg width="163" height="31" viewBox="0 0 163 31" fill="none" xmlns="http://www.w3.org/2000/svg">
<g clip-path="url(#clip0_626_1203)">
<path d="M13.5661 12.1447L14.1605 8.25093C15.5961 7.96884 16.8655 7.4349 17.9687 6.6642C19.0718 5.8935 19.6209 5.14295 19.6209 4.42766C19.6209 3.93905 19.2985 3.69223 18.6386 3.69223H18.5681C17.47 3.73253 16.3164 4.04483 15.1176 4.62412C13.5711 5.34444 12.337 6.24611 11.4253 7.34423C10.5085 8.43731 10.0602 9.56061 10.0602 10.7141C10.0602 11.5503 10.3977 12.3059 11.0777 12.9809C11.7527 13.6408 12.8911 14.351 14.5081 15.0965C16.5733 16.0184 18.0392 16.9754 18.8955 17.9678C19.7518 18.95 20.185 20.159 20.185 21.5996C20.185 22.869 19.8979 24.0225 19.3237 25.0753C18.7343 26.113 17.8981 27.0096 16.8051 27.7652C15.712 28.5258 14.3922 29.1001 12.8609 29.5081C11.3245 29.906 9.63706 30.1125 7.78839 30.1125C6.12107 30.1125 4.70057 29.9211 3.52689 29.5383C2.35321 29.1605 1.46666 28.6014 0.882339 27.8609C0.298019 27.1204 0.00585938 26.2238 0.00585938 25.1559C0.00585938 24.0225 0.343354 23.0151 1.02842 22.1436C1.70341 21.2672 2.65041 20.5922 3.88453 20.1035C5.11866 19.625 6.54923 19.3832 8.18633 19.3832C8.98726 19.3832 9.88388 19.484 10.8863 19.6855L10.1458 23.3526H10.0703L7.83877 23.2669H7.44082C6.32256 23.2669 5.42593 23.408 4.75094 23.685C4.08099 23.9721 3.74349 24.3449 3.74349 24.8033C3.74349 25.6697 4.93732 26.1079 7.34008 26.1079C9.20889 26.1079 10.8359 25.9518 12.196 25.6395C13.5661 25.3322 14.5987 24.8738 15.314 24.2693C16.0243 23.6699 16.3819 22.9496 16.3819 22.1285C16.3819 21.4636 16.0898 20.8591 15.5155 20.305C14.9312 19.7459 13.9741 19.1616 12.6292 18.542C11.1986 17.8519 10.0451 17.1366 9.1686 16.4113C8.28708 15.6859 7.63728 14.895 7.21415 14.0438C6.79102 13.1975 6.57946 12.2606 6.57946 11.233C6.57946 9.83766 6.91191 8.4776 7.58187 7.15281C8.25686 5.82802 9.17363 4.63923 10.3523 3.58645C11.5059 2.52359 12.8256 1.68237 14.3015 1.0779C15.7724 0.468395 17.2735 0.166161 18.7998 0.166161C20.1145 0.166161 21.1371 0.503655 21.8876 1.16857C22.6231 1.83852 22.9908 2.78552 22.9908 4.00957C22.9908 5.50563 22.4568 6.87073 21.399 8.10485C20.4218 9.20297 19.2683 10.0996 17.9233 10.8048C17.2332 11.1826 16.5985 11.4546 16.0192 11.6259C15.45 11.7971 14.629 11.9684 13.5661 12.1447Z" fill="#319E90"/>
<path d="M39.4212 26.1181L39.0786 26.4203L38.6706 26.7477C36.7766 28.269 35.3309 29.2411 34.3235 29.6592C33.7643 29.8607 33.1448 30.0068 32.4597 30.1126C31.3666 30.0723 30.8226 29.488 30.8226 28.3647C30.8226 27.4831 31.1349 26.2339 31.7746 24.6069C31.8401 24.3953 31.9006 24.2241 31.9509 24.1032C32.0064 23.9772 32.0567 23.811 32.0819 23.7002C32.0819 23.7002 32.1121 23.5944 30.7823 24.763L26.2891 28.687C25.2212 29.634 24.2137 30.1126 23.2567 30.1126C22.7731 30.1126 22.3802 29.9766 22.0729 29.6995C21.7707 29.4124 21.6145 29.0648 21.6145 28.6467C21.6145 28.0171 21.8412 27.1255 22.2996 25.9972C22.35 25.8511 22.4104 25.705 22.4709 25.5438C22.5313 25.3877 22.6018 25.2315 22.6623 25.0653L21.2871 26.1231V22.5869C22.3349 21.6551 23.025 20.9901 23.3725 20.6023L24.1886 19.6754L25.5033 17.9023L26.5309 15.3736L29.9562 15.2477L26.2387 24.9343C28.3745 22.9849 30.0116 21.4233 31.15 20.2396C32.0819 19.3178 32.6713 18.7234 32.9282 18.4665C34.127 17.1518 35.064 16.0889 35.749 15.2628L38.857 15.1318C37.4818 18.8795 36.2225 22.053 35.0891 24.6472C34.9834 24.889 34.933 25.0905 34.933 25.2315C34.933 25.433 35.0136 25.5337 35.1798 25.5337C35.3964 25.5337 35.6332 25.433 35.88 25.2315L38.3231 23.4231L39.26 22.7028L39.4111 22.5769V26.113" fill="#319E90"/>
<path d="M52.7406 26.118C51.2295 27.4831 50.0407 28.4402 49.1743 28.9892C48.0862 29.7347 46.9629 30.1125 45.8245 30.1125C45.2553 30.1125 44.7868 29.9111 44.4191 29.5081C44.0665 29.1303 43.8852 28.6366 43.8852 28.0171C43.8852 27.2665 44.137 26.3094 44.6307 25.1509L47.2954 19.0407L47.5221 18.3959C47.3861 18.2398 47.2249 18.129 47.0435 18.0735H46.0713C45.1445 19.6653 44.273 20.9649 43.4469 21.9573C42.3891 23.282 41.019 24.6774 39.3164 26.1281V22.5869C40.2382 21.5795 41.024 20.6173 41.6587 19.7056C42.379 18.7334 43.0591 17.6655 43.6988 16.507C43.3512 15.9025 43.18 15.3484 43.18 14.8447C43.18 14.1395 43.3764 13.54 43.7542 13.0514C44.137 12.5578 44.6005 12.316 45.1646 12.316C45.7288 12.316 46.1822 12.5124 46.5348 12.8953C46.8974 13.2882 47.0838 13.7869 47.0838 14.3863C47.0838 14.6885 47.0788 14.9303 47.0486 15.1016H48.8418C50.4286 15.1016 51.2194 15.7816 51.2194 17.1316C51.2194 17.7512 51.0229 18.5219 50.6452 19.4437L48.2676 24.9746C48.1719 25.166 48.1215 25.3372 48.1215 25.4984C48.1215 25.705 48.192 25.8208 48.328 25.8208C48.8418 25.8208 50.0911 24.9343 52.0808 23.1612L52.7507 22.5819V26.118" fill="#319E90"/>
<path d="M65.0304 26.1231C63.7862 27.1759 62.7233 27.9567 61.8368 28.4553C60.5976 29.1757 59.4441 29.5333 58.3963 29.5333C58.1445 29.5333 57.9329 29.5232 57.7566 29.488L57.5803 29.4477C56.9859 29.8859 56.3915 30.1076 55.7971 30.1076C55.0516 30.1076 54.4068 29.8708 53.8729 29.4023C53.344 28.9288 53.077 28.3496 53.077 27.6746C53.077 27.4026 53.1324 27.1759 53.2281 27.0046C53.3289 26.8333 53.4548 26.7477 53.611 26.7477H53.6664C54.0492 26.8384 54.6738 26.8837 55.5301 26.8837H55.5755C55.9885 26.8837 56.4167 26.8535 56.8398 26.793C57.3234 26.0022 57.6659 25.2466 57.8725 24.5213C58.1747 23.4282 58.3409 21.9523 58.3661 20.0986L57.2428 21.3931C56.5074 22.2243 55.5302 23.272 54.3162 24.5213C53.7067 25.1257 53.1425 25.6597 52.6035 26.1231V22.5769C54.1097 21.0959 55.3488 19.756 56.3109 18.5572C57.2327 17.3633 58.079 16.1796 58.8396 15.016C58.9051 13.8826 59.0008 13.0414 59.1267 12.5074C59.2577 11.9785 59.4642 11.5302 59.7715 11.1675C60.1795 10.6638 60.6329 10.4119 61.1366 10.4119C61.59 10.4119 61.9778 10.5933 62.2952 10.9459C62.6125 11.3035 62.7737 11.7418 62.7737 12.2707C62.7737 13.1119 62.4513 14.0236 61.8015 15.016C62.003 16.1997 62.1037 17.5094 62.1037 18.9501C62.1037 20.3907 61.9778 21.776 61.726 22.9244C61.5547 23.6851 61.2273 24.6371 60.7538 25.7806C61.2373 25.5337 61.6605 25.297 62.0282 25.0653C62.139 24.9948 62.2901 24.894 62.4664 24.763C62.6377 24.617 62.7838 24.5112 62.8896 24.4356C63.0608 24.3097 63.7761 23.6851 65.0304 22.5769V26.1231Z" fill="#319E90"/>
<path d="M74.5653 26.1181C73.0441 27.4983 71.8301 28.4402 70.9234 28.944C69.6792 29.7197 68.5811 30.1126 67.624 30.1126C67.0548 30.1126 66.6014 29.9413 66.269 29.6038C65.9315 29.2714 65.7652 28.8281 65.7652 28.279C65.7652 27.5638 66.0121 26.3951 66.5057 24.7832C66.4906 24.7983 66.4604 24.8336 66.41 24.889C66.3596 24.9444 66.3193 24.9897 66.279 25.0199C66.1128 25.1358 65.9214 25.2819 65.7048 25.4683C65.4882 25.6546 65.3421 25.7856 65.2716 25.8612L64.9492 26.1181V22.5718C65.9869 21.5594 66.672 20.8693 67.0094 20.4915C67.1505 20.3605 67.3167 20.1842 67.5182 19.9676C67.7096 19.756 67.901 19.5596 68.0723 19.3833C68.6214 18.7083 69.1604 17.9829 69.7044 17.1971L70.4146 15.2074L72.3338 15.1419C72.3338 15.1419 74.1069 15.0764 73.4672 16.7387L70.3844 24.7832L70.2736 25.1912L70.198 25.4078V25.5388C70.198 25.6597 70.2534 25.71 70.3643 25.71C70.4751 25.71 70.5557 25.6849 70.6312 25.6244L71.145 25.3675L73.9306 23.1612L74.5603 22.5769V26.1181M71.825 10.7142C71.825 9.95356 72.0467 9.3088 72.495 8.795C72.9332 8.27616 73.4873 8.01926 74.1422 8.01926C74.6761 8.01926 75.1043 8.21068 75.4367 8.60358C75.7692 8.97634 75.9354 9.48006 75.9354 10.1148C75.9354 10.8351 75.6987 11.4748 75.2353 12.0289C74.7769 12.583 74.2429 12.8601 73.6334 12.8601C73.1297 12.8601 72.7015 12.6535 72.3489 12.2405C72.0014 11.8325 71.825 11.3287 71.825 10.7192" fill="#319E90"/>
<path d="M84.0361 24.35C84.0361 24.35 84.0361 26.1231 83.9354 26.2188C83.8245 26.3246 83.6885 26.4354 83.6382 26.4757C83.5878 26.5059 83.4971 26.5915 83.3611 26.7175C83.2302 26.8484 83.0639 26.9995 82.8775 27.1708C81.719 28.3092 80.7821 29.085 80.0869 29.493C79.3918 29.901 78.6463 30.1075 77.8453 30.1075C76.3442 30.1075 75.5887 29.5131 75.5887 28.3193C75.5887 27.5738 75.7599 26.5462 76.1176 25.2365C76.1679 25.0653 76.2082 24.9494 76.2284 24.894L76.2788 24.7076C76.2788 24.7076 76.3291 24.5212 75.9413 24.8688C75.5534 25.2164 74.9389 25.7503 74.4805 26.1231V24.355C74.4805 24.355 74.4805 22.5819 74.9288 22.1739C75.3771 21.7659 76.1478 21.0002 76.7825 20.3C77.3416 19.6452 77.8101 19.0609 77.9965 18.7939C77.9965 18.7939 78.1879 18.5269 79.6789 13.4192L82.5249 3.6721C82.9178 2.30197 83.3007 1.34993 83.6684 0.805912C84.0311 0.266928 84.4844 -4.57764e-05 85.0133 -4.57764e-05C85.779 -4.57764e-05 86.1618 0.569162 86.1618 1.70758C86.1618 2.76036 86.0208 4.0096 85.7488 5.46536C85.4818 6.91608 85.1644 8.07968 84.827 8.9612L82.1623 15.5902L79.3666 25.1559C79.2658 25.5136 79.2155 25.7805 79.2155 25.9518C79.2155 26.0828 79.2608 26.2037 79.3515 26.3195C79.427 26.4203 79.5227 26.4706 79.6587 26.4706C80.1322 26.4706 81.3916 25.3977 83.4165 23.2518L84.0411 22.5769V24.35" fill="#319E90"/>
<path d="M99.2944 15.3232L95.3099 17.3129C95.4107 16.0033 95.5265 15.016 95.6625 14.3359C95.7985 13.666 96.0353 12.9154 96.3728 12.0793C97.1485 10.0442 98.1761 8.45244 99.4606 7.31403C100.75 6.17057 102.156 5.60136 103.687 5.60136C104.528 5.60136 105.269 5.80789 105.913 6.22598C106.563 6.64911 107.062 7.23847 107.424 7.99405C107.787 8.75971 107.969 9.63619 107.969 10.6285C107.969 11.6964 107.757 13.0968 107.349 14.8447C106.936 16.5775 106.457 18.0836 105.908 19.353C105.203 21.0002 104.372 22.5013 103.415 23.8513C102.468 25.1962 101.445 26.3346 100.352 27.2464C99.2591 28.1682 98.1056 28.8784 96.8916 29.3771C95.6726 29.8708 94.4385 30.1226 93.1993 30.1226C91.8493 30.1226 90.6706 29.8103 89.6531 29.1958C88.6356 28.5762 87.8548 27.6947 87.3058 26.5512C86.7517 25.4028 86.4746 24.0628 86.4746 22.5214C86.4746 21.1211 86.6509 19.6502 86.9985 18.0937C87.3461 16.5372 87.8296 15.016 88.4391 13.5249C89.0486 12.0339 89.7942 10.5832 90.6807 9.18284C91.5622 7.78249 92.5042 6.52822 93.5116 5.43514C94.9875 3.86352 96.5995 2.60421 98.3524 1.63706C100.105 0.669908 101.667 0.186333 103.042 0.186333C103.667 0.186333 104.155 0.33745 104.518 0.644721C104.881 0.946956 105.067 1.37008 105.067 1.91914C105.067 2.982 104.367 3.69225 102.977 4.03478L102.236 4.20605C100.73 4.58384 99.249 5.35958 97.7832 6.53829C96.3123 7.717 95.0027 9.15765 93.8491 10.8552C92.7057 12.5528 91.804 14.3863 91.1391 16.3408C90.4691 18.3002 90.1367 20.2043 90.1367 22.0681C90.1367 23.3778 90.444 24.4457 91.0635 25.2718C91.673 26.0928 92.4689 26.5009 93.4512 26.5009C94.368 26.5009 95.2999 26.254 96.262 25.7654C97.2241 25.2768 98.0854 24.6069 98.8461 23.7556C99.8636 22.6071 100.79 21.2621 101.632 19.7359C102.468 18.2096 103.133 16.6631 103.611 15.1066C104.095 13.5501 104.342 12.1699 104.342 10.961C104.342 9.82257 103.964 9.25336 103.213 9.25336C101.314 9.25336 100.005 11.2884 99.3095 15.3484" fill="#319E90"/>
<path d="M120.41 26.118C118.899 27.4831 117.71 28.4402 116.854 28.9892C115.761 29.7347 114.638 30.1125 113.499 30.1125C112.93 30.1125 112.456 29.9111 112.089 29.5081C111.736 29.1303 111.56 28.6366 111.56 28.0171C111.56 27.2665 111.807 26.3094 112.305 25.1509L114.975 19.0407L115.202 18.3959C115.061 18.2398 114.905 18.129 114.723 18.0735H113.756C112.824 19.6653 111.953 20.9649 111.132 21.9573C110.069 23.282 108.699 24.6774 106.996 26.1281V22.5869C107.923 21.5795 108.704 20.6173 109.338 19.7056C110.064 18.7334 110.739 17.6655 111.378 16.507C111.031 15.9025 110.865 15.3484 110.865 14.8447C110.865 14.1395 111.056 13.54 111.434 13.0514C111.812 12.5578 112.285 12.316 112.844 12.316C113.403 12.316 113.857 12.5124 114.214 12.8953C114.582 13.2882 114.769 13.7869 114.769 14.3863C114.769 14.6885 114.753 14.9303 114.728 15.1016H116.522C118.108 15.1016 118.904 15.7816 118.904 17.1316C118.904 17.7512 118.708 18.5219 118.325 19.4437L115.947 24.9746C115.847 25.166 115.796 25.3372 115.796 25.4984C115.796 25.705 115.867 25.8208 116.008 25.8208C116.516 25.8208 117.771 24.9343 119.76 23.1612L120.43 22.5819V26.118" fill="#319E90"/>
<path d="M130.933 26.118C130.711 26.2742 130.505 26.4253 130.313 26.5714C130.112 26.7124 129.905 26.8736 129.694 27.0449C128.213 28.1984 127.009 28.9943 126.082 29.4426C125.165 29.8859 124.259 30.1126 123.377 30.1126C122.168 30.1126 121.574 29.5484 121.574 28.41C121.574 27.6242 121.871 26.5009 122.465 25.0653C122.642 24.5918 122.758 24.2643 122.808 24.0931C122.062 24.6321 121.387 25.1559 120.793 25.6748L120.279 26.1231V22.5769C121.075 21.8263 121.841 21.0657 122.581 20.2849C123.337 19.4487 124.244 18.3657 125.281 17.0409L126.727 12.9306H123.871L124.747 9.98378H127.734C128.379 7.06218 129.039 4.93142 129.694 3.60663C130.369 2.26169 131.124 1.59174 131.961 1.59174C132.263 1.59174 132.525 1.72774 132.731 2.00479C132.938 2.2768 133.044 2.62941 133.044 3.06261C133.044 4.41763 132.5 6.34689 131.407 8.84032C131.356 8.95618 131.271 9.14256 131.16 9.39946C131.059 9.6765 130.983 9.86792 130.933 9.98378H133.426L132.857 12.9306H130.001C126.928 20.834 125.402 25.171 125.402 25.9518C125.402 26.2389 125.518 26.38 125.76 26.38C126.369 26.38 127.921 25.2819 130.404 23.0756C130.671 22.8187 130.807 22.6776 130.822 22.6675L130.938 22.5819V26.118" fill="#319E90"/>
<path d="M149.102 26.118C147.696 27.4025 146.568 28.2941 145.717 28.813C144.195 29.7902 142.961 30.2838 142.009 30.2838C141.516 30.2838 141.107 30.1126 140.785 29.7751C140.458 29.4376 140.296 29.0145 140.296 28.5158C140.296 28.0423 140.458 27.3421 140.77 26.4203L140.886 26.118L142.362 22.2897C142.362 22.2897 142.996 20.6375 141.722 21.8717L135.425 27.9365L134.796 28.5208C134.086 29.1807 133.577 29.6189 133.27 29.8154C132.967 30.0169 132.64 30.1176 132.302 30.1176C131.965 30.1176 131.698 30.0118 131.481 29.8154C131.28 29.6189 131.179 29.352 131.179 29.0346C131.179 28.4201 131.476 27.3622 132.071 25.8662C132.212 25.4682 132.328 25.1459 132.413 24.899L132.111 25.1559L131.008 26.0022L130.857 26.1281H130.842C130.842 26.1281 130.816 26.1281 130.816 24.355C130.816 24.355 130.816 22.5819 131.179 22.2847C131.542 21.9774 132.061 21.509 132.378 21.1816C133.058 20.5469 133.879 19.6905 134.353 19.1465C134.353 19.1465 134.831 18.6075 136.634 13.6005L140.332 3.31951C140.825 1.97456 141.213 1.10312 141.495 0.700142C141.913 0.236716 142.357 0.0100403 142.825 0.0100403C143.203 0.0100403 143.53 0.171232 143.792 0.498652C144.059 0.821036 144.19 1.22905 144.19 1.71766C144.19 2.57399 144.014 3.68722 143.651 5.0775C143.289 6.45771 142.876 7.63138 142.407 8.59853L139.208 15.1973L137.098 21.1362C137.098 21.1362 136.503 22.8086 137.833 21.6399L142.971 17.1115C143.007 17.0812 143.158 16.9553 143.41 16.7236C144.563 15.6003 145.51 15.0412 146.245 15.0412C146.744 15.0412 147.132 15.152 147.429 15.3736C147.721 15.5953 147.867 15.9076 147.867 16.3105C147.867 16.9603 147.681 17.731 147.318 18.6226L144.744 24.7127C144.538 25.1912 144.442 25.5085 144.442 25.6848C144.442 25.8964 144.513 26.0072 144.649 26.0072C144.996 26.0072 146.346 24.9847 148.724 22.9396L149.097 22.592V26.1231" fill="#319E90"/>
<path d="M162.999 26.1231C162.244 26.6873 161.453 26.9694 160.647 26.9694C160.269 26.9694 159.735 26.8837 159.055 26.7125C158.556 27.4177 158.153 27.9264 157.831 28.2488C157.519 28.5712 157.091 28.8885 156.557 29.2009C155.534 29.8053 154.496 30.1076 153.428 30.1076C151.978 30.1076 150.854 29.6139 150.054 28.6165C149.248 27.6292 148.85 26.2641 148.85 24.5213C148.85 22.7784 149.212 21.0405 149.938 19.4689C150.663 17.8822 151.63 16.638 152.849 15.7162C154.073 14.7792 155.378 14.3158 156.773 14.3158C157.967 14.3158 158.99 14.7138 159.846 15.5197C160.682 16.3156 161.1 17.2676 161.1 18.3909C161.1 19.0357 160.803 19.8215 160.209 20.7232C160.36 21.2118 160.435 21.6198 160.435 21.9523C160.435 22.4107 160.36 22.9748 160.209 23.6397L160.763 23.7707H160.873C161.372 23.7707 162.072 23.3728 162.999 22.5769V26.1231ZM157.67 19.9223L157.766 19.3581V19.2523C157.766 18.935 157.63 18.6529 157.352 18.4111C157.075 18.1491 156.753 18.0182 156.4 18.0182C155.741 18.0182 155.101 18.3103 154.491 18.8846C153.882 19.4639 153.383 20.2144 153.01 21.1463C152.633 22.0732 152.446 23.0403 152.446 24.0528C152.446 24.8436 152.582 25.4683 152.864 25.9266C153.146 26.375 153.529 26.6016 154.008 26.6016C154.562 26.6016 155.171 26.2944 155.846 25.6798C155.932 25.6043 156.154 25.4128 156.335 25.2668C156.335 25.2668 156.511 25.1157 156.32 24.763C156.123 24.4054 155.927 23.7757 155.927 23.2116C155.927 21.9573 156.506 20.8642 157.67 19.9273" fill="#319E90"/>
</g>
<defs>
<clipPath id="clip0_626_1203">
<rect width="163" height="30.2788" fill="white"/>
</clipPath>
</defs>
</svg>
