<svg width="24" height="24" viewBox="0 0 24 24" fill="none" xmlns="http://www.w3.org/2000/svg">
<path d="M20.0004 20L15.9504 15.95M15.9504 15.95C16.6004 15.3 17.116 14.5282 17.4678 13.6789C17.8196 12.8296 18.0007 11.9193 18.0007 11C18.0007 10.0807 17.8196 9.1704 17.4678 8.32108C17.116 7.47176 16.6004 6.70004 15.9504 6.05C15.3003 5.39996 14.5286 4.88431 13.6793 4.53251C12.83 4.18071 11.9197 3.99964 11.0004 3.99964C10.0811 3.99964 9.17076 4.18071 8.32144 4.53251C7.47211 4.88431 6.7004 5.39996 6.05036 6.05C4.73754 7.36282 4 9.14339 4 11C4 12.8566 4.73754 14.6372 6.05036 15.95C7.36318 17.2628 9.14375 18.0004 11.0004 18.0004C12.857 18.0004 14.6375 17.2628 15.9504 15.95Z" stroke="#319E90" stroke-width="2" stroke-linecap="round" stroke-linejoin="round"/>
</svg>
