<svg width="24" height="24" viewBox="0 0 24 24" fill="none" xmlns="http://www.w3.org/2000/svg">
<path d="M17.5222 5.37999C15.5562 3.53099 12.4572 2.96399 10.1042 5.23399L4.36423 10.764C4.29404 10.8357 4.21016 10.8927 4.11756 10.9314C4.02496 10.9701 3.92553 10.9899 3.82516 10.9895C3.72478 10.9891 3.62551 10.9686 3.53322 10.9291C3.44094 10.8896 3.35751 10.832 3.28788 10.7597C3.21826 10.6874 3.16386 10.6019 3.1279 10.5082C3.09194 10.4145 3.07516 10.3145 3.07855 10.2142C3.08194 10.1139 3.10543 10.0152 3.14763 9.92417C3.18984 9.8331 3.24989 9.75142 3.32423 9.68399L9.06223 4.15399C12.1382 1.18799 16.1622 2.04199 18.5492 4.28699C19.7492 5.41399 20.5962 6.93699 20.7302 8.59599C20.8672 10.278 20.2622 12.021 18.7002 13.528L11.5882 20.39C9.38523 22.515 6.50523 21.89 4.81823 20.302C3.96823 19.504 3.35923 18.418 3.26223 17.222C3.16423 16.004 3.60523 14.752 4.71323 13.682L11.7232 6.91899C13.0532 5.63599 14.7882 6.03299 15.7762 6.96199C16.2762 7.43199 16.6462 8.08199 16.7062 8.81299C16.7662 9.56799 16.4892 10.33 15.8342 10.961L15.8332 10.963L10.0102 16.542C9.86648 16.6796 9.67394 16.7545 9.47497 16.7502C9.27599 16.7459 9.08688 16.6627 8.94923 16.519C8.81158 16.3752 8.73668 16.1827 8.74099 15.9837C8.7453 15.7847 8.82848 15.5956 8.97223 15.458L14.7932 9.88099C15.1482 9.53899 15.2332 9.20999 15.2102 8.93499C15.1862 8.63499 15.0262 8.31599 14.7492 8.05499C14.1822 7.52199 13.3732 7.41199 12.7642 7.99899L5.75423 14.762C4.94623 15.542 4.69823 16.362 4.75723 17.102C4.81923 17.863 5.21723 18.619 5.84523 19.21C7.11123 20.4 9.06523 20.739 10.5462 19.31L17.6582 12.448C18.9212 11.23 19.3332 9.91899 19.2352 8.71699C19.1352 7.49099 18.4992 6.29899 17.5222 5.37999Z" fill="#6E6E6E"/>
</svg>